# xmcd
# 
# Track frame offsets:
#     150
#     11781
#     29936
#     45718
#     71898
#     92077
#     110684
#     129534
#     147543
#     158572
#     184077
#     208871
# 
# Disc length: 3087
# 
# Revision: 1
# Processed by: cddbd v1.5.2PL0 Copyright (c) Steve Scherf et al.
# Submitted via: fre:ac v1.0.17
# 
DISCID=ba0c0d0c
DTITLE=Solomon Burke - Music To Make Love By
DYEAR=0
DGENRE=
TTITLE0=Music To Make Love By - Part I
TTITLE1=Let Me Wrap My Arms Around You
TTITLE2=Come Rain Or Come Shine
TTITLE3=You And Your Baby Blues
TTITLE4=All The Way
TTITLE5=Thanks, I Needed That
TTITLE6=Everlasting Love
TTITLE7=Midnight And You
TTITLE8=Music To Make Love By - Part II
TTITLE9=Baby Blues (Alt. Version)
TTITLE10=I'm Leaving On That Late, Late Train
TTITLE11=Data File
EXTD=
EXTT0=
EXTT1=
EXTT2=
EXTT3=
EXTT4=
EXTT5=
EXTT6=
EXTT7=
EXTT8=
EXTT9=
EXTT10=
EXTT11=
PLAYORDER=
